<svg id="visual" viewBox="0 0 960 540" width="960" height="540" xmlns="http://www.w3.org/2000/svg" xmlns:xlink="http://www.w3.org/1999/xlink" version="1.1"><path d="M0 444L7.7 449C15.3 454 30.7 464 45.8 465.2C61 466.3 76 458.7 91.2 457.7C106.3 456.7 121.7 462.3 137 463.8C152.3 465.3 167.7 462.7 183 459.2C198.3 455.7 213.7 451.3 228.8 450C244 448.7 259 450.3 274.2 454.2C289.3 458 304.7 464 320 465.2C335.3 466.3 350.7 462.7 365.8 461.3C381 460 396 461 411.2 463.2C426.3 465.3 441.7 468.7 457 467.2C472.3 465.7 487.7 459.3 503 459.3C518.3 459.3 533.7 465.7 548.8 467C564 468.3 579 464.7 594.2 460.8C609.3 457 624.7 453 640 451C655.3 449 670.7 449 685.8 452.3C701 455.7 716 462.3 731.2 466C746.3 469.7 761.7 470.3 777 466.2C792.3 462 807.7 453 823 451.8C838.3 450.7 853.7 457.3 868.8 459.2C884 461 899 458 914.2 455C929.3 452 944.7 449 952.3 447.5L960 446L960 541L952.3 541C944.7 541 929.3 541 914.2 541C899 541 884 541 868.8 541C853.7 541 838.3 541 823 541C807.7 541 792.3 541 777 541C761.7 541 746.3 541 731.2 541C716 541 701 541 685.8 541C670.7 541 655.3 541 640 541C624.7 541 609.3 541 594.2 541C579 541 564 541 548.8 541C533.7 541 518.3 541 503 541C487.7 541 472.3 541 457 541C441.7 541 426.3 541 411.2 541C396 541 381 541 365.8 541C350.7 541 335.3 541 320 541C304.7 541 289.3 541 274.2 541C259 541 244 541 228.8 541C213.7 541 198.3 541 183 541C167.7 541 152.3 541 137 541C121.7 541 106.3 541 91.2 541C76 541 61 541 45.8 541C30.7 541 15.3 541 7.7 541L0 541Z" fill="#144a9b" stroke-linecap="round" stroke-linejoin="miter"></path></svg>